# xmcd
#
# Track frame offsets:
#	180
#	16422
#	34033
#	52661
#	68791
#	84457
#	101001
#	115111
#	134205
#	153507
#	173139
#	189891
#
# Disc length: 2790 seconds
#
# Revision: 0
# Processed by: cddbd v1.4PL0 Copyright (c) Steve Scherf et al.
# Submitted via: EasyCDDAExtractor 4.5.0.2
#
DISCID=950ae40c
DTITLE=Chuck Drum and Stars and Bars - Chance That Dance
DYEAR=2001
DGENRE=Country
TTITLE0=Country Romance
TTITLE1=Honky Tonk Brawl
TTITLE2=Land Of Opportunity
TTITLE3=Chance That Dance
TTITLE4=Son Of Texas
TTITLE5=She'll Be Gone
TTITLE6=Dust In The Mailbox
TTITLE7=My Kind Of Girl
TTITLE8=Like A Bird
TTITLE9=Lover's Row
TTITLE10=She'll Always Be Around
TTITLE11=Ridin' That Rodeo
EXTD=
EXTT0=
EXTT1=
EXTT2=
EXTT3=
EXTT4=
EXTT5=
EXTT6=
EXTT7=
EXTT8=
EXTT9=
EXTT10=
EXTT11=
PLAYORDER=
